<?xml version="1.0" encoding="UTF-8"?>
<!DOCTYPE svg PUBLIC "-//W3C//DTD SVG 1.1//EN" "http://www.w3.org/Graphics/SVG/1.1/DTD/svg11.dtd">
<!-- Creator: CorelDRAW -->
<svg xmlns="http://www.w3.org/2000/svg" xml:space="preserve" width="167px" height="167px" version="1.1" style="shape-rendering:geometricPrecision; text-rendering:geometricPrecision; image-rendering:optimizeQuality; fill-rule:evenodd; clip-rule:evenodd"
viewBox="0 0 25160 25160"
 xmlns:xlink="http://www.w3.org/1999/xlink"
 xmlns:xodm="http://www.corel.com/coreldraw/odm/2003">
 <defs>
  <style type="text/css">
   <![CDATA[
    .fil0 {fill:#A8D4AF}
    .fil1 {fill:#A8D4AF}
   ]]>
  </style>
 </defs>
 <g id="Warstwa_x0020_1">
  <metadata id="CorelCorpID_0Corel-Layer"/>
  <path class="fil0" d="M12580 0c6950,0 12580,5630 12580,12580 0,6950 -5630,12580 -12580,12580 -6950,0 -12580,-5630 -12580,-12580 0,-6950 5630,-12580 12580,-12580zm0 740c6540,0 11850,5300 11850,11840 0,6540 -5310,11850 -11850,11850 -6540,0 -11840,-5310 -11840,-11850 0,-6540 5300,-11840 11840,-11840z"/>
  <path class="fil1" d="M11660 21920l0 -9060 1920 0 0 4840c2780,-220 4190,-1770 4190,-4630 0,-2830 -3730,-6390 -5190,-7770 -1450,1380 -5190,4940 -5190,7770 0,1280 300,2320 880,3080 150,150 250,360 250,580 0,470 -430,850 -970,850 -370,0 -700,-190 -860,-460 -800,-1050 -1210,-2410 -1210,-4050 0,-3980 5330,-8670 6400,-9570l30 -30c360,-310 980,-310 1330,0l50 30c1060,900 6390,5590 6390,9570 0,3800 -2220,6090 -6100,6320l0 2530 -1920 0z"/>
 </g>
</svg>
