<?xml version="1.0" encoding="UTF-8"?>
<!DOCTYPE svg PUBLIC "-//W3C//DTD SVG 1.1//EN" "http://www.w3.org/Graphics/SVG/1.1/DTD/svg11.dtd">
<!-- Creator: CorelDRAW -->
<svg xmlns="http://www.w3.org/2000/svg" xml:space="preserve" width="109px" height="101px" version="1.1" style="shape-rendering:geometricPrecision; text-rendering:geometricPrecision; image-rendering:optimizeQuality; fill-rule:evenodd; clip-rule:evenodd"
viewBox="0 0 7240 6680"
 xmlns:xlink="http://www.w3.org/1999/xlink"
 xmlns:xodm="http://www.corel.com/coreldraw/odm/2003">
 <defs>
  <style type="text/css">
   <![CDATA[
    .fil1 {fill:#D9DADA}
    .fil0 {fill:#108064;fill-rule:nonzero}
   ]]>
  </style>
 </defs>
 <g id="Warstwa_x0020_1">
  <metadata id="CorelCorpID_0Corel-Layer"/>
  <g id="_2920907675888">
   <polygon class="fil0" points="1680,4260 1320,4260 1320,3490 490,3490 490,4260 140,4260 140,2430 490,2430 490,3200 1320,3200 1320,2430 1680,2430 "/>
   <path class="fil0" d="M7110 4260l-850 0c-130,0 -230,-30 -310,-100 -70,-70 -110,-160 -110,-290l0 -1440 1270 0 0 310 -920 0 0 450 880 0 0 310 -880 0 0 370c0,50 40,80 120,80l800 0 0 310z"/>
   <path class="fil0" d="M2490 3830l810 0 160 430 390 0 -690 -1680c-40,-110 -120,-160 -240,-160 -120,0 -200,50 -240,150l-700 1690 390 0 530 -1400c10,-20 10,-20 20,-20 0,0 10,0 10,20l260 670 -610 0 -90 300z"/>
   <path class="fil0" d="M5090 3230c-50,40 -130,70 -230,70 0,0 -10,0 -10,0l-360 0 0 -560 330 0c140,0 230,30 280,80 50,60 70,120 70,210 0,80 -30,150 -80,200zm250 -630c-120,-110 -300,-170 -520,-170l-690 0 0 1830 360 0 0 -650 10 0c0,0 250,0 250,0l100 0c10,0 20,0 30,0 180,-10 330,-60 450,-150 130,-110 200,-250 200,-430 0,-180 -60,-330 -190,-430z"/>
  </g>
  <g id="_2920907677088">
   <path class="fil1" d="M4980 2050c-220,0 -390,-180 -390,-390 0,-210 170,-390 390,-390 210,0 380,180 380,390 0,210 -170,390 -380,390z"/>
   <path class="fil1" d="M6660 1170c-330,0 -590,-260 -590,-580 0,-330 260,-590 590,-590 320,0 580,260 580,590 0,320 -260,580 -580,580z"/>
   <path class="fil1" d="M4980 4630c-220,0 -390,180 -390,390 0,210 170,390 390,390 210,0 380,-180 380,-390 0,-210 -170,-390 -380,-390z"/>
   <path class="fil1" d="M6660 5510c-330,0 -590,260 -590,580 0,330 260,590 590,590 320,0 580,-260 580,-590 0,-320 -260,-580 -580,-580z"/>
   <path class="fil1" d="M2270 2050c210,0 380,-180 380,-390 0,-210 -170,-390 -380,-390 -220,0 -390,180 -390,390 0,210 170,390 390,390z"/>
   <path class="fil1" d="M590 1170c320,0 580,-260 580,-580 0,-330 -260,-590 -580,-590 -330,0 -590,260 -590,590 0,320 260,580 590,580z"/>
   <path class="fil1" d="M2270 4630c210,0 380,180 380,390 0,210 -170,390 -380,390 -220,0 -390,-180 -390,-390 0,-210 170,-390 390,-390z"/>
   <path class="fil1" d="M590 5510c320,0 580,260 580,580 0,330 -260,590 -580,590 -330,0 -590,-260 -590,-590 0,-320 260,-580 590,-580z"/>
  </g>
 </g>
</svg>
